<?xml version="1.0" standalone="no"?>
<!DOCTYPE svg PUBLIC "-//W3C//DTD SVG 20010904//EN"
 "http://www.w3.org/TR/2001/REC-SVG-20010904/DTD/svg10.dtd">
<svg version="1.0" xmlns="http://www.w3.org/2000/svg"
 width="512.000000pt" height="512.000000pt" viewBox="0 0 512.000000 512.000000"
 preserveAspectRatio="xMidYMid meet">
<metadata>
Created by potrace 1.11, written by Peter Selinger 2001-2013
</metadata>
<g transform="translate(0.000000,512.000000) scale(0.100000,-0.100000)"
fill="#000000" stroke="none">
<path d="M850 4797 c-3 -3 -31 -7 -63 -11 -69 -7 -184 -44 -249 -81 -90 -50
-157 -143 -196 -273 -16 -53 -17 -188 -19 -1927 -2 -1788 -1 -1873 16 -1945
46 -185 107 -272 246 -345 101 -54 272 -68 380 -30 161 56 250 153 309 335 20
64 20 82 23 1185 2 616 4 1187 6 1269 l2 149 44 -179 c24 -99 45 -186 48 -194
5 -15 151 -591 158 -620 2 -8 49 -197 105 -420 56 -223 103 -412 105 -420 4
-20 109 -424 135 -525 76 -285 151 -412 306 -517 44 -29 131 -64 189 -76 40
-9 223 -8 260 0 17 4 41 9 55 12 14 3 57 22 97 41 92 46 192 150 245 256 29
59 81 213 104 309 2 8 40 159 85 335 44 176 82 327 84 335 2 8 24 96 50 195
25 99 47 187 50 195 5 22 65 263 69 280 3 13 62 245 230 910 l21 85 5 -1265
c6 -1387 3 -1312 65 -1444 70 -149 221 -244 395 -251 253 -11 418 113 496 370
18 57 19 155 21 1920 3 1811 2 1862 -17 1948 -50 226 -185 342 -445 385 -57 9
-619 9 -684 -1 -139 -20 -220 -57 -292 -134 -93 -99 -114 -164 -344 -1038 -48
-181 -101 -379 -117 -439 -16 -59 -31 -115 -33 -125 -2 -9 -15 -56 -28 -106
-13 -49 -73 -273 -132 -497 -60 -225 -110 -406 -112 -404 -2 1 -23 79 -48 172
-24 93 -54 203 -65 244 -25 91 -180 679 -185 700 -5 21 -201 759 -270 1016
-39 145 -91 304 -125 377 -27 61 -122 157 -182 185 -45 21 -108 39 -173 49
-40 6 -619 15 -625 10z"/>
</g>
</svg>
